<svg width="32" height="32" viewBox="0 0 32 32" fill="none" xmlns="http://www.w3.org/2000/svg">
<path d="M15.9998 2.66602C8.65317 2.66602 2.6665 8.65268 2.6665 15.9993C2.6665 23.346 8.65317 29.3327 15.9998 29.3327C23.3465 29.3327 29.3332 23.346 29.3332 15.9993C29.3332 8.65268 23.3465 2.66602 15.9998 2.66602ZM20.4798 19.066C20.8665 19.4527 20.8665 20.0927 20.4798 20.4793C20.2798 20.6793 20.0265 20.7727 19.7732 20.7727C19.5198 20.7727 19.2665 20.6793 19.0665 20.4793L15.9998 17.4127L12.9332 20.4793C12.7332 20.6793 12.4798 20.7727 12.2265 20.7727C11.9732 20.7727 11.7198 20.6793 11.5198 20.4793C11.3339 20.2912 11.2296 20.0373 11.2296 19.7727C11.2296 19.5081 11.3339 19.2542 11.5198 19.066L14.5865 15.9993L11.5198 12.9327C11.3339 12.7445 11.2296 12.4906 11.2296 12.226C11.2296 11.9614 11.3339 11.7075 11.5198 11.5193C11.9065 11.1327 12.5465 11.1327 12.9332 11.5193L15.9998 14.586L19.0665 11.5193C19.4532 11.1327 20.0932 11.1327 20.4798 11.5193C20.8665 11.906 20.8665 12.546 20.4798 12.9327L17.4132 15.9993L20.4798 19.066Z" fill="#2F99D7"/>
</svg>
