<svg width="448" height="324" viewBox="0 0 448 324" fill="none" xmlns="http://www.w3.org/2000/svg">
<path d="M49.9398 248.621C30.6498 247.991 16.5898 239.761 6.93983 224.011C2.22716 216.126 -0.174173 207.075 0.00983475 197.891C0.00983475 172.791 0.00983475 147.691 0.00983475 122.591C0.149835 63.2813 46.2198 10.7513 104.84 1.70127C169.33 -8.24873 231.84 32.9813 245.84 98.4913C248.09 109.071 248.01 120.241 249.09 131.071C252.84 167.381 281.42 196.071 316.09 198.411C354.76 201.001 386.83 177.751 395.79 140.631C405.87 98.8613 374.99 55.2913 332.28 50.6313C321.203 49.3136 309.974 50.2698 299.28 53.4413C279.22 59.4413 266.28 73.1213 259.03 92.4413C258.47 93.9413 257.79 95.4413 256.95 97.3813C251.28 71.5313 247.95 63.6913 232.5 40.2713C243.5 26.4613 256.87 15.4713 273.42 9.12127C349.63 -20.1187 431.92 23.4113 445.81 104.411C457.59 173.161 408.81 238.411 339.67 247.411C270.84 256.441 208.79 208.881 199.77 140.071C198.57 130.881 198.84 121.491 197.57 112.311C193.25 81.0713 166.26 54.8313 134.82 50.8413C88.9098 45.0713 49.9398 79.3813 49.9398 125.651C49.9398 164.551 49.9398 203.451 49.9398 242.351V248.621Z" fill="url(#paint0_linear_64_393)"/>
<path d="M198.79 322.921C196.98 270.731 195.18 218.771 193.41 167.581C199.12 178.011 204.47 189.191 211.1 199.581C220.1 213.681 232.05 225.281 245.3 235.521C247.015 236.859 248.139 238.815 248.43 240.971C248.7 252.431 248.75 263.901 248.5 275.361C247.95 300.361 227.5 321.571 202.5 323.121C201.26 323.117 200.022 323.05 198.79 322.921Z" fill="url(#paint1_linear_64_393)"/>
<defs>
<linearGradient id="paint0_linear_64_393" x1="447.567" y1="124.311" x2="5.09533e-07" y2="124.311" gradientUnits="userSpaceOnUse">
<stop stop-color="#F8219F"/>
<stop offset="1" stop-color="#7B28A9"/>
</linearGradient>
<linearGradient id="paint1_linear_64_393" x1="248.662" y1="245.351" x2="193.41" y2="245.351" gradientUnits="userSpaceOnUse">
<stop stop-color="#F8219F"/>
<stop offset="1" stop-color="#7B28A9"/>
</linearGradient>
</defs>
</svg>
